<mxfile host="app.diagrams.net" agent="Mozilla/5.0 (Windows NT 10.0; Win64; x64) AppleWebKit/537.36 (KHTML, like Gecko) Chrome/127.0.0.0 Safari/537.36" version="24.7.6">
  <diagram name="Page-1" id="k4AFjAdu5YZ5ZF23VnKM">
    <mxGraphModel dx="1246" dy="446" grid="1" gridSize="10" guides="1" tooltips="1" connect="1" arrows="1" fold="1" page="1" pageScale="1" pageWidth="850" pageHeight="1100" math="0" shadow="0">
      <root>
        <mxCell id="0" />
        <mxCell id="1" parent="0" />
        <mxCell id="qepv15_--lQYeBApSAIm-14" style="edgeStyle=orthogonalEdgeStyle;rounded=0;orthogonalLoop=1;jettySize=auto;html=1;entryX=0;entryY=0.5;entryDx=0;entryDy=0;" edge="1" parent="1" source="qepv15_--lQYeBApSAIm-1" target="qepv15_--lQYeBApSAIm-4">
          <mxGeometry relative="1" as="geometry" />
        </mxCell>
        <mxCell id="qepv15_--lQYeBApSAIm-1" value="" style="shape=image;verticalLabelPosition=bottom;labelBackgroundColor=default;verticalAlign=top;aspect=fixed;imageAspect=0;image=https://static.vecteezy.com/system/resources/previews/013/441/088/original/code-symbol-illustration-png.png;" vertex="1" parent="1">
          <mxGeometry x="10" y="540" width="40" height="40" as="geometry" />
        </mxCell>
        <mxCell id="qepv15_--lQYeBApSAIm-17" style="edgeStyle=orthogonalEdgeStyle;rounded=0;orthogonalLoop=1;jettySize=auto;html=1;exitX=1;exitY=0.5;exitDx=0;exitDy=0;" edge="1" parent="1" source="qepv15_--lQYeBApSAIm-4" target="qepv15_--lQYeBApSAIm-16">
          <mxGeometry relative="1" as="geometry" />
        </mxCell>
        <mxCell id="qepv15_--lQYeBApSAIm-4" value="" style="shape=image;verticalLabelPosition=bottom;labelBackgroundColor=default;verticalAlign=top;aspect=fixed;imageAspect=0;image=https://upload.wikimedia.org/wikipedia/commons/thumb/3/3f/Git_icon.svg/2048px-Git_icon.svg.png;" vertex="1" parent="1">
          <mxGeometry x="100" y="542.5" width="35" height="35" as="geometry" />
        </mxCell>
        <mxCell id="qepv15_--lQYeBApSAIm-8" value="&lt;font face=&quot;Comic Sans MS&quot; style=&quot;font-size: 8px;&quot;&gt;&lt;b&gt;Source Code&lt;/b&gt;&lt;/font&gt;" style="text;strokeColor=none;align=center;fillColor=none;html=1;verticalAlign=middle;whiteSpace=wrap;rounded=0;" vertex="1" parent="1">
          <mxGeometry y="570" width="60" height="30" as="geometry" />
        </mxCell>
        <mxCell id="qepv15_--lQYeBApSAIm-15" value="&lt;font style=&quot;font-size: 8px;&quot; face=&quot;Comic Sans MS&quot;&gt;&lt;b&gt;Code Commited&lt;/b&gt;&lt;/font&gt;" style="text;strokeColor=none;align=center;fillColor=none;html=1;verticalAlign=middle;whiteSpace=wrap;rounded=0;" vertex="1" parent="1">
          <mxGeometry x="40" y="530" width="60" height="30" as="geometry" />
        </mxCell>
        <mxCell id="qepv15_--lQYeBApSAIm-49" value="" style="edgeStyle=none;rounded=0;orthogonalLoop=1;jettySize=auto;html=1;" edge="1" parent="1" source="qepv15_--lQYeBApSAIm-16" target="qepv15_--lQYeBApSAIm-48">
          <mxGeometry relative="1" as="geometry" />
        </mxCell>
        <mxCell id="qepv15_--lQYeBApSAIm-16" value="" style="shape=image;verticalLabelPosition=bottom;labelBackgroundColor=default;verticalAlign=top;aspect=fixed;imageAspect=0;image=https://agilesparks.com/wp-content/uploads/2022/06/469-jenkins@4x.png;" vertex="1" parent="1">
          <mxGeometry x="200" y="515" width="90" height="90" as="geometry" />
        </mxCell>
        <mxCell id="qepv15_--lQYeBApSAIm-18" value="&lt;font style=&quot;font-size: 8px;&quot; face=&quot;Comic Sans MS&quot;&gt;&lt;b&gt;Webhook&lt;/b&gt;&lt;/font&gt;" style="text;strokeColor=none;align=center;fillColor=none;html=1;verticalAlign=middle;whiteSpace=wrap;rounded=0;" vertex="1" parent="1">
          <mxGeometry x="120" y="530" width="90" height="35" as="geometry" />
        </mxCell>
        <mxCell id="qepv15_--lQYeBApSAIm-19" value="&lt;font face=&quot;Comic Sans MS&quot; style=&quot;font-size: 8px;&quot;&gt;&lt;b&gt;Triggers&lt;/b&gt;&lt;/font&gt;" style="text;strokeColor=none;align=center;fillColor=none;html=1;verticalAlign=middle;whiteSpace=wrap;rounded=0;" vertex="1" parent="1">
          <mxGeometry x="135" y="550" width="55" height="40" as="geometry" />
        </mxCell>
        <mxCell id="qepv15_--lQYeBApSAIm-32" value="" style="shape=image;verticalLabelPosition=bottom;labelBackgroundColor=default;verticalAlign=top;aspect=fixed;imageAspect=0;image=data:image/png,iVBORw0KGgoAAAANSUhEUgAABnwAAADcCAYAAABatw8TAAAAAXNSR0IArs4c6QAAAARnQU1BAACxjwv8YQUAAAAJcEhZcwAAFiUAABYlAUlSJPAAAEcxSURBVHhe7d0JnBxlnf/x32Ry3zcJCUlIgBxABOQIWcMRPEC55VBQBAVhhUVfy66reMCiKyqKirIq+l8VEP9/XLkh3AkGQ0IOjnDlIieBHOROmFwz//k+XU+mplLdXT01M+ma+bzz6nRXdU93Hb966nnqV09VRU0tAwAAAAAAAAAAQGa1CZ4BAAAAAAAAAACQUSR8AAAAAAAAAAAAMo6EDwAAAAAAAAAAQMZVbNlSxT18AAAAAAAAAAAAykRFRUXtw6xNm4raRxtr27aNG1cICR8AAAAAAAAAAIAyp+RPu3ZtXfInDpd0AwAAAAAAAAAAKHPV1TW2fftO27ZtRzCmPhI+AAAAAAAAAAAAGVFTU2NVVTtdAiiMhA8AAAAAAAAAAECZqLt3T4VVVrZxz1G7d1dbVdUO9+yR8AEAAAAAAAAAACgTNTW5y7fpoYSOntu0UeKnfkpHn1NPn127ckkfEj4AAAAAAAAAAABlrLpaiZ/qIPFTv8eP7uujxBAJHwAAAAAAAAAAgAzIJX7q37tHlPQh4QMAAAAAAAAAAJAhurdPmC7vRsIHAAAAAAAAAAAgQ3QJt2jSh4QPAAAAAAAAAABAxrj79oTu50PCBwAAAAAAAAAAIJNI+AAAAAAAAAAAAGRadbUu7VbpXpPwAQAAAAAAAAAAyKiamhr3TMIHAAAAAAAAAAAgo9TLR/fyIeEDAAAAAAAAAACQYRUVJHwAAAAAAAAAAAAyTZd1I+EDAAAAAAAAAACQcSR8AAAAAAAAAAAAMowePgAAAAAAAAAAABlXU9MEPXyqq6tt8+bN7rk57Nix07Zt2xoMAQAAAAAAAAAAtD6NnvC5776HbNy4E+2uu+4JxjSe9es32CWXfMk99Hrbtm12ww032cc/frq98cabwacAAAAAAAAAAABal0ZP+PTs2d169Ohm/fr1CcY0nbZt21qvXj1tv/0GWJcunYOxAAAAAAAAAAAArUvFli1VNcHrsqdePV/96nXu9S9+8VOX7AEAAAAAAAAAAGjtGr2HDwAAAAAAAAAAAJpX4oTPAw88ZMOGjbT773/Ipk2bbueff7Ebvuqqa+rdP8d/Ts8Svu/O4sVL7JZbfmZHHHGcfeQjJ9sf/vAnq6qqcp+TmpoamzFjpn3pS1e575g48VT77/++wzZs2BB8oj797be+9V077bSz7O23F7txs2fPcX9722232yuvvLrnu6LTKfre22//jZuWQw89yq688mr3+5oOAAAAAAAAAACArCi5h8/TT0+2P/7xTjvppAl2+eWX2fTpM13SZcmSJcEn4q1Zs9Z++MNbbPv27XbFFZfZ8OHD7T//8wf2pz/dbbt373ZJloceesS+8pVrbfDgQXbXXf9jF1/8Gbvnnr/Yz372y3qJoSRmzZptP//5r+xDHzrcPvOZ823q1GkuCbRx40b3/tq179vXv369PfnkM/a1r33VfvnLW62ysp1dd93Xbc6cl9xnAAAAAAAAAAAAsqDkhM/OndvtBz/4nl199VX2rW/9h91ww7fspZdetWeemRJ8It6yZcvtk5881f2N/vanP/2RTZx4kj3xxNP27rurbOXK9+yee/6fffGLl9p3v3u9TZjwT7Wvv2CXXnqJTZr0hC1YsDD4pmR27txlN9/8Pbv22qvtppu+a+ef/2mbM+dlNx3y6KOTbPnyd+xnP/uxnXfe2W5avvnNf7N+/fraY489YTt27HSfAwAAAAAAAAAAKHclJ3xOPPFE69u3j3tdUVFhY8ceZiNHjrQlS5a63jv5HH74oTZu3HHub0TfMXbs4TZv3nxbvXqNvf322+5yarfccquNGDHGXYbtwANH2fe//0P3/o4dO9zfJXXUUUe45I20b9/eDj74oD3fs3XrVne5tzfffMtdNk6/pceECae45FVV1QdWXb3b/S0AAAAAAAAAAEC5Kznh06VLp+BVjhI4bdpUuARJoXvfKOmih+f/TsmXmprd9v7777vxX/vav9j//b937fUYPvxA935SHTp0sMrKymCo/nSr944u6XbkkWPt97//9V6/dfHFn7V27doFnwYAAAAAAAAAAChvJSd8du+uDl7lqMfMBx9UWc+ePQsmSaqrq+slhHTfHvUIGjZsmHXp0sX69Mn1GurWrauNG3fsXo9evXq59xtD+/btXA+jiopKGzVq1F6/NWbM6HrJIgAAAAAAAAAAgHJWcsJn1qzZtm3bNvd6165dNnnyc7ZkyRI7/PDDCiZJ5s9fYG+9NS8YMlu8eIlNm/aCjRp1sA0cOMAGDdrfRo8eZU8//ay9996q4FNmVVVV7jcbU+fOne3AA4fZnDkv2dSpz9dLRC1cuMhWrVodDAEAAAAAAAAAAJS/khM+8+bNs69//Vv261/fYd/+9o32q1/9xk499WN27LHHBJ+Ip141t912u91yy8/c83XXfcPmz19kn/rUadajRw8bOnSInX32GfbCCzPsyiuvsbvv/ovdd9+D9uUvX23Tpk0PvqVx6HJyZ5zxSXdJN90j6DvfudEef/wpN22aLl1mDgAAAAAAAAAAICtKTvhcdNFFdvzx4+zPf/6LS5JcdNGF9r3v3Wi9exe+5Nrw4cPt3//9Olu0aJHdeutt7n4+v/jFT1zCR9Q76LLLLrHbbvuptamdKiWTbr3153bwwQfZueee7T7TmHQpuV/+8ud25pmfskceedyuuuoae/nlV+yf//lyGzx4UPApAAAAAAAAAACA8lexZUtV3fXMCnjggYfsa1/7d/v5z2+xs88+Mxhb3Pr1G+yrX73Ovf7FL35qvXr1dK8BAAAAAAAAAADQOEru4QMAAAAAAAAAAIDyQsIHAAAAAAAAAAAg40j4AAAAAAAAAAAAZFzie/gAAAAAAAAAAACgPNHDBwAAAAAAAAAAIONI+AAAAAAAAAAAAGQcCR8AAAAAAAAAAICMI+EDAAAAAAAAAACQcSR8AAAAAAAAAAAAMo6EDwAAAAAAAAAAQMaR8AEAAAAAAAAAAMg4Ej4AAAAAAAAAAAAZR8IHAAAAAAAAAAAg40j4AAAAAAAAAAAAZBwJHwAAAAAAAAAAgIwj4QMAAAAAAAAAAJBxJHwAAAAAAAAAAAAyjoQPAAAAAAAAAABAxpHwAQAAAAAAAAAAyDgSPgAAAAAAAAAAABlHwgcAAAAAAAAAACDjKmpqBa8BAAAAAAAAAACwjyl1o+xNdXVN7aPaPe/eXR28G4+EDwAAAAAAAAAAQJnbtavadu/e7Z7jkPABAAAAAAAAAADIiJ07d9uOHbuCoTrcwwcAAAAAAAAAACAj2rWrtMrKvdM7JHwAAAAAAAAAAAAypH37tnslfUj4AAAAAAAAAAAAZEibNhWup4+ePRI+AAAAAAAAAAAAGaMePm3bVgZDJHwAAAAAAAAAAAAySb182rbNpXpI+AAAAAAAAAAAAGRUZWWulw8JHwAAAAAAAAAAgIxSD582bWofwTAAAAAAAAAAAAAyqLKygoQPAAAAAAAAAABAllVW0sMHAAAAAAAAAAAg0yoqKqyiplYwDAAAAAAAAAAAgAyihw8AAAAAAAAAAEDGkfABAAAAAAAAAADIOBI+AAAAAAAAAAAAGUfCBwAAAAAAAAAAIONI+AAAAAAAAAAAAGQcCR8AAAAAAAAAAICMI+EDAAAAAAAAAACQcSR8AAAAAAAAAAAAMo6EDwAAAAAAAAAAQMaR8AEAAAAAAAAAAMg4Ej4AAAAAAAAAAAAZR8IHAAAAAAAAAAAg40j4AAAAAAAAAAAAZBwJHwAAAAAAAAAAgIwj4QMAAAAAAAAAAJBxJHwAAAAAAAAAAAAyjoQPAAAAAAAAAABAxpHwAQAAAAAAAAAAyDgSPgAAAAAAAAAAABlHwgcAAAAAAAAAACDjSPgAAAAAAAAAAABkHAkfAAAAAAAAAACAjCPhAwAAAAAAAAAAkHEkfAAAAAAAAAAAADKOhA8AAAAAAAAAAEDGkfABAAAAAAAAAADIOBI+aJCFC9+2Cy74vHtuKv/7vw/Yv/3b9VZVVRWMQTl68cVZtbFwia1btz4Y0zo1xzaB9FSeqFxR+dLUfvrT29wDTaO1lz2KYcre8hYtb5qz/ClHxCyQjOqSJ510mtvP+eEkdUxtW9rGyq2MoY5cPlr7uqDd2vho76RTruU2SqOypV+/YXv222g+tC/yI+FTyzfAtYH6hyrZviLU2BWDcq9oxS0PPcI78nXr1tX+X2G9e/fKjWgCS5cus4EDB1jHjh2DMU2jlPWhwiS8TMJxEhb9nB7hGPI79kJx5XcaWhdaJ/tKvngot0qJn8645VXoPa2/cKMa2efXaThe822rLUlLbHBpfsLrUY9ynUc/rfnKxsauSzQGvy8qtn34MjQL25Gfp8beRzXX9uWnPxr3hWIL2ZZvncfVWZqKr3Pme6Qtu3wZ0pJjOK7uoUe51S/zTWc5TmtDKc7Sxmxzy1cOlFOdp7HrMb7eFH00Z9nXUuSLHz1aUrnbHDHYGtqMzUnxF13Gjb2N6zdK/U4/XQ3Z78X9Xu/eve3QQ0cHQwjLV+/I2n46i1p9wkcBdsklX3aJhTVrlux5/Md//GvwidZFhdcBB4zaa3nMm/dS7WPBnp3f1KnT7Ljjjm6yhI/Wy4wZs2zo0CHBmKbz8suv1v5fPHmlCsG9997nloVfLp/5zHnBuzm+MIt+Tg8tr2effc59TvO3evUamzz577V/s8iNC9P7P/lJroLfHEmvfLQDVDyMG3dsvXl59NH/DT5RPrSMNJ3Llq2wbds+CMbmrFix0mbNein2vVzyMreTRvZpO7388qvt97+/vV7MRrdVlDdflkp4Pb7wwrPWpUsXN75c/epXv92zr8yK119/M9gXxvNlKJrPr3/983qxrzqF6hY0jlqu8DpfvvwtN+7b376pWQ58Hnvs0fV++wtfuKje9Nx7751NepJXS6I6sl9uev2pT51X8gGlgw4ablOmTHLrpamEp1MP7V+//vXvcLB9Hwtvdyr31R4up6RPY1NZozInHItq+6r92ZADsa0ddYfSRWPwmmuudG3JrNXly5VO4v7GN/51z/Jt7PqNvmP69BdLOmamdav2muj4UCny/V5z7LezLlrvoG7Z9Fp9wkcH4IcMGWxXX/3lYEzOaad9zG20rYmSPSr4VOG/7rprg7E52hDvuOOXbpmokHv33feaNBmTq5DU2BFHjM2NaELaCSkGOnfuFIzZm3YKDz88qbYRdG29Qumqq760J070GVUOVEmIK7y0TM8772z3WkmG/v37uQqGkmdhWr4/+MEt1rNnDzvnnDOaJekVR5VsNfwUD366Pe3IouPKgeJFibRoEk0HMvv37xv7npb/0UcfaYMH7x+MQVapQayy6fHH79+r/A5vqyhvviz98Y+/t9e+SOtQ67JcqfxXefKb3/y+URoxzUUNMR0QyHcw4MEHH3FlqB7YN1SnuPPOO1x9RXWELMUXSqeDCFdddbktW7bcJVyRTWPHHubq+qUeUNoXtH+977573LTefvsdwVjsSyr31fZUG7Q1HXxW3U+JC7VDW9N8NwXqDqU7/fRTXV2+0IlQSCbuuKHqNxdccK47kawx6jc6mVf7raTHzDRNaqedccZprv2jY4GlKPX3gH2JS7rV0gYbPetfVBjoLCedmaWeGCNHHlmvi6fvBugf0TOidPBRD/85vf+jH91qxx8/sfb7prpnjS+Hs1c0T0r26GBVsYOivpBTxUHT7uc/7uwjjfPvx3WPDf99+Duil4zTQSidmRL+jnx/68V1tfTfo7/V9+j7fvjDW+1Pf7rHnUkUNw9SrBeI33GocqBKQjG+h5R6pOjMrfBBtkceedwt38sv/4Jt2LChWZJeUZofHfxLEg9x/Lbj102+9RBef+HtQOtGl9l77bU3Cn5PlJI2WgdafmHakZ9++ml7vafvUiVE68GfoeHjwv9mNG79tGl6/TyEpz3Mx79iUaLfHT7bSp/VI/oZ/7desenz/G/HfU+x38gizdOMGTPdAbKkZ/dovv0yiFuOxeJYorGcb32IX+7h9S7RdaVhz09DXBz4S1H671VZpoe+o9i2Us6UXFAlvKFnSIWXZ3RZS9LlXSw+4mzevNkuvfRzrhGjsjyJ8O/oEbfu/HSFP7Nt27bg3Tpxn0sSB77XlO+FGqb51rZ12WWXBGPqSzL9+5rWsR7RekO07I7Oi/6m2PZVKJ4aW74kQLH17uffz4v/nOY3qtBn/O9oXHhZxW0fcdPUmDHbGvn9TTRufX3El3V+eNGixe7ZL9vGiM1wvCcpXxUnmh7VsVXX/ud//pob76fFz5P/fNKyNqvC21CY5jl8eenocD5atn7Z6aE2RRo+wRBtm0TXkx7ROBRNb7j8iIsRz8dKeFlE5yf8G+Fl5//Wx1ExfnlG2xX6rmgZlPQ7m4vanv5ki6TxI/qMn6e4+YrOt15rXBz/2XzHRCT6e4W+L4l8B92jMZavzCg2/154OYTjzceYHtE49stbn/fbRdz2UC4aWnfw87dy5bsFPxenWJmh5Rv3Pf43o+WGn9ZCMRheZ3rkW+cNkXRZJdnv6rP+fT3ylduFYtD/np61HPJtB/uav0KAjhuGhcs1icZLdH6jy9/Pr7ZzxYJiwtcvtEwKefXV19zxoMsu+7xL2uhYUDQOJRpP+t58v+enT++HRcuhuPf1d5rX8PyF5yHfvLck4eUXXmZx8xpdHnod175ATqtP+PgeAXFnPGjn+JOf/MB1PTv55BNcl1h109MBcG2UOojsu3/6ronRM6J0kGTt2vfdZ/RdulScekycfPIE96zx5dDtL9cDop9NnHhiMCa/XOFbY5MmPeUSF5oHzYvOPvKFk98QRe/roQN44bOeVYjqsmX+0mf6Dn/QySeU1OtGv3fVVV91CRK//FUQ+N4n+lvf5T1ciGr9RLta+mnXTsafyaZ167sXRs8m9w46aIRbPjoQGcfvzHS2QrGDzZp/f6ZDtEeKCjQl3tTYymna+yTlo/lRpbAhySYt4+hlEvU63G1XBxU1j/59Lf/oWVyrV6+1a665zlVQ9Rmt62IHUbXs9VvqZut/S9Oj2Bg16hCX2Am/F62EKH6ilwPL1637d7/7Y225caP7TNw2rO/SwUHNm3pDaTquv/5G12vBf7e2iTCVF3/+8/9zPVT0vuZZ8RCO66efnrzX9Ol7c7Fdt+0pxnz5pO2jb98+7n1to0o2++nwXf3Dv5FFKsOGDDkgcU8tVdJEy0DLSY3KcPmUJI4VE+eee5Hb7v1nfvWrn7r3ovz61+/oTDtt1xqnCq34v/dlWSmNFJVlKht1lpLvMq/9TbGyqBxpmWj+J0wYH4xJLi72tW60//Dbh9aZ9jPR5R2N/2LxUYjWh7bLQj1mxE+vyiQ/vXqWcJzpO6KxqPm67rrcPtaL+1w0ZvNR+aDvDJePnt+2DjhgUDAmJ+n0lwuVx77Oooe2FdVB/DpS2ah1ppjQ+3rWfr/Q9pU0nhpTrk5QsecgWNL1nmT/knT/0JDys7FjtjVIc79MHYz45jdvqF0vv3DLVXURbQPhgwil8Nt7ofJVcRJ+39frVUfSuPBl4lTf1neq/aXv0Tg9WtoltX2dNcnJYKXS8g63hbSMn3lmslv3aaiNFG6bKGZ0gCtab49eqi5afujxla9cEbxbn6Y9XEf248Lzo2cNR2P2iSeedm0ofSZfuy1OtF2hWFQZeMklV+yJQf1muD1bDhpSDmj64/ZnXqltLO3v8h0T8WVDY9cF4tp0ipEk7TTVocPzr+kZMyb+3ho6dqN51zJQWZWkrPOKtQXLSUPrDioLbrjhv/bESpJ1q/grVmaonq/lHk5AiT8pNhrvhWJQ89IY7SkvfHKzJF1WSfa7ScrtpDGodaM41/EsvyzKjb+qjY6lheXiMFeuxbWnFQPh47P+GKtfHl/60iXub7X/CMeE3iu0LWr5qe6v39Lfax1rXYdP/o+LJ+0vJN/vxSW2ouWQ1rn2OeF48L2LvvGN7+7ZxtTW0N8Vm/eWqLHaF6jT6hM+KhhVadAGWqiHR5Q2MlUy/QE1PSvYtGMJF8QqyDS+3Kmwidu5xlEBrR5KuimZr2jr71SY+94TvmAKXypPlXNfoKqgU4ValST/m1oXulSPNmhV7rQhq/D0OwD/W9opqLBUg8Lv2PQd+oyvFGodaF1Eu1rG9RzyCaBC9HlVWrTTjp5xIPl2ZnHClYjBQY8UVW70nTog7M9s1zh9ptCl5ppKmoMM/gxxnTXh6bXmWWdUiHaW4Z2xLnmh5eAroV64h5GetWzCFf840Qqkb7Bq3Wh5ht/T7/n1puWvnWv4N0XTqt8NJ/vUUPrEJz5a73Nhim/tsFQh8PMZng7v85//bGQZV9i//MtVe8oVfX/0wHH00mQ+Seu/3/cQu/76f9/zPfqNk06a4JabvksVCT9dPrbDv5FFcQneQnTgyR+A0d+okhU+861YHGtZqgKi2PAHK+Sww8bsFRf6rCqtir/vf/+7e6Yx7je0PlQu6uBsuPHaWuRisHiZHEfrRdu31qVfxlrHWu5+WWvdhC8Jp+Ud3nd40fjQZ8JlRzH+d//wh7uCMXuLm149a9sNl5eadn1XeH+q7VfbcViSsrcQlSXRz/pyUfPvp9FLOv3lQo2z8LI566zTXWPZl53Rgwx6VhldSNJ4akyqEygevOTrvfD+pZT9Q7Hto7litiXT8g4flGgIrTv/t/7SYorzhojb3sPlq+JHcR/uMa0Y0yWy81G8RE8uagmX1NZBTX/mqdor4WXWWHzZHG4L6Tf0W2lvGq2Y8cmBuHJB9FoHwPSePuPjVePCn1PdMxq/cXVkPz/Rer8vo8LlaY8e3feUP6UKf7/2eZrP4447Zs906D3V6xq6nTQ21QN1cLjUciDJ/ixuWTdk39WUdYFwOz4uRiTaTos7xqDpiSuLdPBdn9WxIP+dxco6r1hbsNw0tO6gezxeccWle+bTlzNaRnHrNmmZofawtr9w21/xrvaP6meliJsXrfuGtqdUd9ey0n5TSqmrFNrvJi23k8ag1k2aOkJz0DLSdIePZ2m70z5Ay0rj49rTigHfLtdy03G9cP0ifAwl7jfy0fLTZ/0+JNferHG/4fn1H67Dho9dxf1e7tiZ/774ckjrPLx/0XagpJ6+74c/vGlPTISPmRab96wJ14/0iB57b6z2Beq0+oSPaONSVtxn4RV82kiTUIHlA1YBHJW08NmXfGGTlA6shjdGUWGkAyeaX18waQP1BZMv2P1OSQWdCjxfsIX5hIj4M8XCOwBVDJQc8DvhsHDh6KcnLFpA5yoZyRIbKkyUmdf3KgkVrjz46U0it0PJHdDU8lEBruX/y1/+Zk8B5tdJuHDPAk23GgvR5KGWt+YtvJy0HJQ807bjL/URpm6+0R5G4R1gPr4C6Xe8+ryfnuh74USnDvpp3cb1atLvKqZz6y4nGlveggWLXOMs2uj1iZ5C108Ox6aXm576FRHFnrq4atn5bsVeoeStdpbaaUZ7T8RVdlq6uOSQGm+KjSRx7MupJD1RlADXZ8NJuHy/IbnhurPwkIz2K9o3KJHuaXlrXWu7CFMF0++7/dlEYdGy11fgfdlRjP5WDbVCZwrHTa/4ONP7Pk7i4jV8IKSUsjcf/Z3+3jdExFes4/a3Saa/nESXjV5rf+CXjbZl1QFVXylVsXhqKqWsdw1rfFh4/1LK/qHQ9tGcMdvSKHZ8HOlMXp0lHK7/lkIJzvAJJloXWieqW2rZlypue/ffqfJVrxUXmoekbSh9l3oPhnsptwRqT/ozT3UgWb0PGlKuFOLrrH7b83y51ljylQui7dQfiMmtv+L3Xs1XR85XB/dlQbjeH1e2JBFtV/iyJlwulYNwORDXDk4iyf5M8x4VXdZJNFddIGk7TfMQNz1R+ryWdfjguxQr68LilmEWlLL/VSIiWs5o2WgZxe2nk5YZ+l0dF9J0+H2S2j2lXK1B8s2L5IaLt6f8pf39dqdp9z25S1lWxfa7ScvtpDEYt27KjaY3unyV9FKvF+0DFAtK7MQl+Xy73C9r/V20ruDXT5L9go6f3Hvv3+ol0nyM+Padvj96HDMs3+9Fyx2tw3zHOn08+GMJ/vhomOZX811o3rMoXD/SI9pLtzHaF6iPhE+ICh0Fniqh0W7qUf6Aq4LOd69TAEclKXyyRBtaXCLCF5LaKLUz0wHocAbXF+yqsPqCNN+GmSvMamo/M9MllsIHmooV6r5w1PRoxxne6cb9rXZCcRWEfFRo63IoKtCTXt4nKlqZUcVVlR8tM78D8jsAzc++ogpJQ3csPnHqH9GEjg6Ohbt6axvSum4MWpdap9rR+nXuYy38XlwcKmbiYiG6HtRojKtgqWKiS0MoPsIJUdH36uCN1quWR1xPsWLlheZHXbzDlzPQdqUKpn9f22exnV707Ao1KDXtWVfKgawkFYNCcezLqWIVbX2HHuEzvsLipsNX7lorX8FviGijQg8tf0/7dY0TbT9+n98UtL9QZT982bCouG1ewxofliRepVjZW4waXP5sSF9+Rvf3YUmnPwtUB1Q9zh9sS9LjuznjyYurHyRZ78X2L15j7R+aK2ZbEsWO369LoR6C+0Kx8lV1fN+G0nvFkhyKR/V6VSyrTtgSr0uv/YAOKDfFwZp8dda0ovWbfHVejfP3YMjtswufQFeojiw6W13lTTi+FEtRScuWrPLlgH+EE2NJFduf5VunDdVUdQG108PfnaSdFv2bOGpzKxajvVC8YmWdNPYybGoNrTs0pJxJUmaIjoH4XhxJ6pyFpGlP6RiEP56nmIirtzdWXSXp8kwWg02zD2gsWoY61hI9yH/vvXfume5CJ1/7OFI86KRJUV0hfIzWx3VcgjFKvQDD91HXw584q++QfEk5L9/vhcsdP9/59lX+c/mS2OHvKjTvrVVLrwM0NhI+MdRgUWGvg8L5+JtKZ/U+CWGafhUqSQ6W5ktEaFw4qx2+rmW0YPfy7YB9o+Hmm29y3xt3PeHohu4rCb5w9NOoHb0XPeNEf5Pk4HiUvl+ZeH+Giui3kiZIohVRLTMtu/AZRtHGVnPzPWEa2sMg2ljxD21baszrgKK/VnJT0DrVjlZdoqOXC/HvaScbPRsx3zpUPCWhiokqNfq8v6xhmLYBbQuqVCpmoj3F4oQb0bn5WeGu1Rt3xkgSmkZ/3eDwY0qZXvs3KW3X4W2yMRSK46S0L9H36IzWuHWt8iDKl7OtkS8PC+1/C9HyjltnOoNIZb4Ouml9RM8oair+8g/5DtzG7Xf9vqkh0saslr9OSFAdx5c3he7t19jTv69pn6TlpTJSvbOUYI/On6fxzR1Pktt31fUalYau9+hB2n2xf0gbsy2R1ocuA1Koh+C+UKh89bTeNM4fbC6WOFVdWG0p/Y3aVToQ09IOaOTq8tnpRR09MS3fSRgaV0oyuFgdOdp29I+4NiSKK2V/llZT1AX8QdPwgdW07TRPsaZY1HKJS0wnKeuypjHrDvmOB3lJywxf51SZ43t6RA9+J9VY7SldaUXzFa23N3ddpSXEYNLjWdFjdhJNBOlZ+wKth3CbOulvqF6h8iRuH6NlHY6fQom0uN/zZV30mGJ0+/Blmv+cYjN8/FSin5F88w4kQcKnETX0AFU5UGVKZxJEr0Mala9QjSYxkiQ/8u2AfQVi0KCB7qx4Xf86WrBFd+q+kuC7g0anR/y1ff20F6usFBPeGfgEif+NfOJ2CL6xG05+FDrboTnod5XUKvWMRM2LzsxR8q2URoVPxjWWXGWxxiZNeqp2/dbvGp7vPb8O4yqoiqekPcEUX/5ATb4DHVpOOlsj+nvawUeXt8qVuIqQpwq8v6RbseUfrli3NOoJqEpTsW0wiSRxXMqyVGNAB7LCN5X1vxHXSPblrGJVn1NZFi3zSj3QkhWaX5U92n5KrdBqPxa3DRWiZa/13FRUZmg/prPyonUETa/2QdoXhfl9k9736z8uFsMxkSRmk/DLX8tR5X/cZQa8JNOfVf6s/Lj5K6Sp40mxHb6vSynrvdj+pbH2D80dsy2VYlD3qgifaezPVlZchkWHm0Kp5avqtDo4EbePy0cH2nSmdXPMT3PK1fNydXq/faTdp6uuqbaWP4jraf1ofENpv6t2l8oYTavKBdWt4taJxvmDVf4gcnR6ovLVkZP+fWvXkPhp6P4sqaaqC0Tvo5K0nZa0rNL3abkoMR1O+pRa1mWB5qWhdQe1MaPbpYZVzkSPB0nSMkPC0zFt2vTadXiMi9dS+O8o1p5KSt8XviRzKcuqmKTldkuJwfC+r5Bo+aHlrOUd1wbx917zddUkv6HvK9Sm0XG5cPxoXeRb9nG/549jRY8pRrcBv979iXQqt1SeK8Y8HwvR75LovLc2Wk5J2heor9UnfLSDj55JpmEV8j55kNuZ1T8zSwVDuCDW30S7WeaTKyDqrhVZDtQwU3ZbXeejy0PLyFeEcgVM/UJOG1w4ieEPvIYveaYGxG9+83/ca/2tCtxwMkG/qYc+r41YO1Zt1NGDuH6nGz4YqGcdSL3ggk/vqSRE149vVKiQjCvoC9F0hw886jtVaQonAPTsD+pFD/Lrb//zP2928+Yrv3GFeFi44rqv6CC1piGu+6iG486IEu2MNI/hs/c071ouWna5eaq7nq7eU6zoUg6NxR+4UqM1uiPN956mS3EZPXNC86lYCt+osRjfuFI8+OXkY9yLqyyrUh0+o0if13doujSd0Yqij8WwuOWvz02ZMtV9h75LjZv601K3fWaV5k1JNK2ruMvlRbfjYorFcb5l+dprb8T+jg5kqSwL36sg37rSZ8LlmSr+4TJPn4mud4lWWLNK+yMd6NSZ3tFyplCsan+hsjV6nyy/7rXOohVF9SBtyCUZSuH3r9E6Qtz06lnDKnv9SQCqi6ghEe7tquUS/b5iMZuUny79ZqFGctLp17LXpZr8dqJp0Tbq160fju47m9tdd/2l3nKKJtuj21dzx5OWn/bHWrbhM0qTrvdi+5d8ZVqhbS6fxoxZvQ6fma7vCZfxGm6JlwITLR/x603rSHXgcP1Z8636TFMrVr5q3J133rPnPT1r2/D1LL+9hBvl+judfOPlO2iSZZpH1Su1bfk6fdJ9eiGqH0QvGapn1R8aWp/WtqT9rva/vvzOVy7oteLOX4o6Xx1adU8/fV5cHTnf3+t3/Gf2lXIrg5LET7H9WUPFHRNJWhdISt+t5av6fPjel0nbafmmJ1zWeJo2JabD8V2srCuF/l6xE67fRONJw+F4amyarzR1B4mWMxpW+ePbKWFJywxP9UydtPvII5NcbBcTF4Nx86L3o+2ppKLlaynLqpCk5XZjxuC+pGVWrNzR+texDd0zVDS/3/72Te61Lv2p4XDdwh8/KSWJp7qopsXXqaI0jXpfx+m07MPHHiVansbxl58TlVXa3qLHOnWc1V/iXfMTPn7q6fiwjlcqId0Y897SJG1foA49fGpFr1euQjh8ySQ964wDVYJ9hU4FkAoH7UD1N9qg//rX+Eu2RPkKi//d8M5wX1IXUXX7VkUqvDzUYPPXWo5LREQbaNqJq4KmgtNfezS3wz3XvS/hZILe1/JTARtNiOi7/FkWvsKvv/UHA/W3elbDIVqJEf/9qkCoQA3vdHxhrPVQqKLet2+fPb+lh75T8xLtUqtKoy7VpcLbf1YPJaMuvvhCNy/+QL0/ky1Ovh3AvqB5VJf36DaiGMm3s9Fy1b1qVPn2n1ccaH70nh7a2aki6N87/fTTGu0ePqJlrYMiEq086j0ddJDoe4ohxVJ4fSv+77zzjnoxn4TiwV/SRBX7HTt21FuOWoa6D0+4EqqDwlpO4c9om/SNJX1Wse+/R5eE07L09/ARTaemNxyHilkf9366wtOiGP3oR09272eZ5l1dnsNli39o2/NnlCWh7yoUx6JlGS0zb7rph7GxorgL36tA5X6+daV1Gi7P9DtqIPi41M289RlVLsN8g0TTGW5MZpHmX8tWjUO/bPTQMjjqqA8Fn6rPL2Px+x49tm7dumc70wGB8L5J+zQ19puafje8nYqmV707VR756dGzyq7w/kXTrrIivCzipjtJzCbhy898jXkv6fRnhRpR4XJD26XiSfMpcdtXU8aT30f6h+qmuhRFdNkmXe/F9i/SWPuH5o7ZlkrLQGV9+MB4tP2hE2ZuvPF6915TSlK+6ioB/j09q2wIx6sa6qrP631/APRHP6q7L4Kvz4djMovC24+fp4bs04vRsg3Xd+LqhIWEp1MP1XfVjglPq2h6o3WdaFtZ4urQOogbd7DPlzW+jqzyVH8fbt/538l3kK61ShI/xfZnDaX1HT0mkrYuEL1Xia8Hx13KLy7Gou20fNOjsiqOvlP7Jm0PKpeSlHXlrLHrDipPtD5UvugzWj9xx0HCkpYZ4mNKJ4MWOj7ixcWgpjdJe6oUPoGopIvKsMaqqyQpt7Meg6IyPXzSRz6an3B9UfOrv9E2rL/TsUEd3PfLQdupygC/HHzM5Nb33m1fxYe+WzFbaF2pzFRyRr/pTyD1y71Tp057/jbu9/zJxIpJX1eLrudonbtQryB/vLLYvGdRtN5R6skS0XjRo7na8llVUVMreA0A2Ef8wY8kjSMAAJJi/wIAAEqhk9OUqFGyo9TERimoowBA06CHDwAAAAAAAIBmobP7Z8yYuedWCgCAxkPCBwAAAAAAAECz0L1SdIm2LF+mCgDKFQkfAAAAAAAAAE1K9zrR/Td0352rr/5yMBYA0Ji4hw8AAAAAAAAAAEDG0cMHAAAAAAAAAAAg40j4AAAAAAAAAAAAZBwJHwAAAAAAAAAAgIwj4QMAAAAAAAAAAJBxJHwAAAAAAAAAAAAyrqKmVvAayLSNO7bYsi3v2eadW62yotL6duxpI7oPDt4FCiN+kAbxgzSIH6RB/CCN7du326aNG237jh3Wpk0b69Spk/Xq1St4FyiM8gdpED9Ig/hBGsQPWjoSPsi0NzcstvsWT7bJK2fZgk3LgrF12le2s3H9DrNPHDDeLhz+MWvXpm3wDkD8IB3iB2kQP0iD+EEaa9eutXnz5tnSpUtt/bp1wdg6lZWVtv+gQTZ8+HAbPXq0GwY8yh+kQfwgDeIHaRA/aE1I+CCTlmx+126de7c9uPS5YExxvTp0t6vHnG9XjDonGIPWivhBGsQP0iB+kAbxgzQ2btxoM2bMsAXz5wdjiuvYsaN9+Oij7YgjjgjGoLWi/EEaxA/SIH6QBvGD1oiEDzLn3refsutn3m47q3e54WFdB9oZQ0+w8fuNtUN6DLWeHbrZrurdtnLbGpu7boE9u3KWPbBkivusjN/vQ3bLcdfa4C77BWPQmhA/SIP4QRrED9IgfpDGm2++aVMmT7bq6mo33KNHDzv44INt0ODB1rt3b5fY0Xtbtmyx1atXu94/8+fNc5+VwbWfmzhxonXr3j0Yg9aE8gdpED9Ig/hBGsQPWisSPsiU/37jr/ajV/7kXusam1//0CV24fCPu+FC3t221m5/4167a8FjbnhQl/72f074jo3ueaAbRutA/CAN4gdpED9Ig/hBGrNnz7bpL7zgXnfu3NnGjRtno8eMccOFKPmjv31t7lw33K1bN/vkpz5lffv2dcNoHSh/kAbxgzSIH6RB/KA1I+HTQLt27bL33n3XNm/e7IbVABowcKC1bcs1HpvK3Qsn2bdm3u5en7T/0fbT477mCu1SPLrsebv2hVtcBn9I1wH2t4/+2Pp36h28i5aM+EEaxA/SIH6QBvGDNF5/7TWbMiV3purQoUNt4imnuKRPKRYuXGhPPfmk6wHUvXt3O/fTn7YuXboE76Ilo/xBGsQP0iB+kAbxkz269PCaNWtsx/bt1q59e+vVqxcnGaVQeWOt4DUS2LB+vf1j2jR78okn7K233rLFixe7h258Omf2bNu0ebP1rg3Kjp06BX+BxjB33UK7/O/fc68/OuhY+8OJN1jnth3dcCkO6THEjuk3xt2obeOOLbZk80o7c+iJwbtoqYgfpEH8IA3iB2kQP0hDjeZHH33UvR42bJidfsYZ1q5dOzdcCl3ybeDAge4Sb9trG+FqkB98yCHBu2ipKH+QBvGDNIgfpEH8ZMv8+fNt8rPP2gvTptmihQttyZIltmjRInfSkuqeOuFIHSxQGhI+JdC1rx9+6CFbW9t4ymft2rX2Wm1Qdu3Wzfr16xeMRVrXTf+ZLdvynh3YbX+7++TvWfs2pTdWvQO6DnCPJ1a8YG9vfscGd+1vh/YaHryLloj4QRrED9IgfpAG8YM0nnn6adu0aZP17NnTzjzrLKusrAzeKZ169ujx9ttv24YNG9xrzrps2Sh/kAbxgzSIH6RB/GTHU089ZTNffNG2bt0ajKlPJxotX77cVqxY4e4n2aFDh+AdFNMmeEYRSvY8+8wzluQKePqMPqu/QXqTV86yqe+95F5/84gvWpe2pfee2rBjs23eWVeAfPrAiXb6kAnu9W/fvM89o2UifpAG8YM0iB+kQfwgjaVLl7oGsowfP75BPXuiRo4aZQcddJB7/dKcOe4ZLRPlD9IgfpAG8YM0iJ/smPTYY64HTxLvrlxpDz/8sFVVVQVjUAwJnwR0GTd1LyuV/kZ/i3T+uvhp93z8fofbJwaPc69LsXzLKvvYY1fbqZOuDcbkXDn6XPe8YOMyt1NAy0T8IA3iB2kQP0iD+EEabwUnng0aNMgOHN54Z6IeedRR7nndunW2dMkS9xotD+UP0iB+kAbxgzSIn2yYOXOm6zVeivW1dc/ngvtSojgSPgnMnjMnUc+eKP2N/hYNt7um2p5cMd29PmfYye65FLrO5uenfMdWf7DOjuo7MhibM7b3wXZ0vzHu9TMrX3TPaFmIH6RB/CAN4gdpED9IQ20Q34geObL++k+rf//+7n4+smTpUveMloXyB2kQP0iD+EEaxE82fPDBBzZr5sxgqDQLFy50l3dDcRW1DYLSMxmtyK5du+yO3/62QQkfqaiosIs/9zlr27ZtMAaleGndPLv4+e+619PP+qMN7Jz8WuE7q3fZ+c98w15a+5Yd1muE/e1jt1jHyvbBuzk/f+0e+9nce2xk9yF2/0m3BGPRUhA/SIP4QRrED9JorvgZ3XOYPfaJ24KxaCneffdde+D++93rL1x6qXXt2tW9biy61vqLtY8+ffrYBRdeGIxFSzFrzRt2/rPfcK/Zf6FU1H+QBvGDNIifbFAv9OnTc4m5hhg9erRNPOWUYAj5kPApYsXy5fbggw8GQw1TUftgITfM3A7v2KSuc61vx542+5y7g7HF1dT+u3LqD9yN1QZ06mOTTvul9e7QPXi3zhMrptuXp37fKq2NXff+x4OxaCmIH6RB/CAN4gdpED9No3379taxY0d3w1c9OnbqVG/cfvvtF3wy23T/Ht1jp3PnznbZF78YjG08i99+2x577DFr06aNnXnWWcHYbNu8ebN76NrwO3bssKoPPnA3Ctawf66urg4+3bJR/iAN4gdpED9Ig/hpHXr06GGf+/zngyHkwyXdilDFPy2SPQ1X1WaHe+7XsZd7Turml//oCuuu7TrbPRP/K7awln61OwLZbdW2o2KXe42Wg/hBGsQP0iB+kAbx0zR0IH/Tpk22Zs0adzmIhQsW2Buvv25zZs+2F6ZNswcfeMAlSvR+lmk+RQmfptAp+F4lQHbu3OleZ5GSOIqByZMn2zNPP20vzphhr77yijvzdMmSJa6n1Pr1623btm2tJtkjlD9Ig/hBGsQP0iB+WofGOE7fGpDwQSbEdUR7ff0iO+q+i+07s34TjMm5a8Fj9ts3/2ZtKyrtf074ro3oPjh4B60V8YM0iB+kQfwgDeKneWl5q3fMP55/3p588kmXDFr3/vvBu9kTFz+tnRI3y2rX8Yzp0+3xSZPstddes40bNgTvIozyB2kQP0iD+EEaxA9Awqeobt26Ba8aTpd0Q8N0rM5dM3Pt9viG2Podm+zOBY/YjbPvcMPPrpxZW4D/2r2+9fh/teP6H+Ze57OmKve96pLZvob7LLU0xA/SIH6QBvGDNJorftrUVBA/eWzbutXmz59vf//7323KlCmu10dWEii6TJ3oprhN4YNt29yz7lXarl0797rcbd2yxfXeefKJJ2zOnDmu9w7isf9CGsQP0iB+kAbx0zo0xnH61oB7+BSxa9cuu+O3v21wA08NoYs/9zlr25bCoCGK3XRN3S7/+fmbbXdNtZ0//KP2yNKp9sHu7fYfH/qCfWXM+cGn8uOmay0b8YM0iB+kQfwgjeaKn9E9h9ljn7gtGNvybd261TZu3OgeGzZscM+bN21yr1XnL2bg/vvb0UcfbYMHl/fZn0pmPHD//e71Fy691Lp27epeN5aZL75oL9Y++vTpYxdceGEwtny9NneuS/Jo/RfTpUsXd214PXr27Omeu3Xv7l63lvbcrDVv2PnPfsO9Zv+FUlH/QRrED9IgfrJBJ1FNnz49GCrd6NGjbeIppwRDyIeETwLPPPOMC8iGGFUbiKcQiA2mgnjkvefazupd9uPjrrULh+99Y7Sn33nRrpz6X7arZrcbvnDEx+3Hx17rXhfz6ae+brPWvmGfP/iT9v2jvxKMRUtB/CAN4gdpED9Ig/hpfrqnz4IFC2zB/PlF70vz4Q9/2I459lirrKwMxpQXNe9+8+tfu8uXTZw40UaPGRO80zju+9vfXFLpsMMPtxNPPDEYW35WrVpls2bOdPfjKaR379528CGHuAMISvi0dpQ/SIP4QRrED9IgfrJBPdD/+Ic/NPj+iGedfXbZn3xVDrikWwIfPuoo11OnVPob/S0arrKijX188Dj3+v4lk91z1EcHHWv/c+IN1qZ2eev1zcdcE7xT2KvrFrjCWk7Z/1j3jJaF+EEaxA/SIH6QBvHT/NRwPPnkk+3yK66wU0891UaOHJm3/j979my7/777iiYS9hVN9/Dhw93refPmuefGsnr16j2XQxs2dKh7LjdKeM2cOdMlpvKtIyV2Dj3sMDv7nHPssxdd5HpukezJofxBGsQP0iB+kAbxkw2dOnWyo485JhgqzUEHHUSyJ6HKG2sFr5FHx9pg7Nqtmy1evDgYk8zEU06xAw44IBhCQ3Vu29EeWDrFVmxdbWN6DbeDYm6iNqzbQDt18Hj74sgzawvuZHnMm+b83uZvXGYHdx9iN3z4imAsWhriB2kQP0iD+EEaxM++oWSJenwMHzHC9Yzp3r27bdq40aqqqoJP5OjyYK430I4dNmDAgLLr7aN76+geRJs3b7Z+fftar169gnfSeX7qVFu3bp31ql1GEyZMCMaWj6VLl7qrM8x7663YS3KrbTZu3Dg7eeJEO/DAA936xd4of5AG8YM0iB+kQfxkw6BBg+z9tWtt/fr1wZjiVPc87bTTuGVKQskiG3uuEZikp48+o8/qb5DeyfsfbScMzPWUuvnl/7Gtu+JvQDuq5zCrqP2XxP8ufsYeWTbVvb5yzLnuGS0T8YM0iB+kQfwgDeJn39O9b8aOHWvnfvrTdsQRRwRj63v55Zddb5+VK1cGY8rD0KFDbciQIe71tGnTil6mLom33nrLFi5c6F4fdeSR7rmczJgxwx55+GF7L+iBFNa5c2f7yIQJduZZZ7nLt7VpQzO4EMofpEH8IA3iB2kQP9lx2ic/aYeMHBkMFab7aJ5xxhnWsWPHYAyKoYdPCfr162cHH3yw7dy1y95///1gbB0lenTPnk98/OP07GlkB3c/wO5Z9Lht2LHZ5m1camcNbfj1wqetetW+PPW/3OuPDTrOvnnEZe41Wi7iB2kQP0iD+EEaxE95UG8ZJU/2r21sbtu61TZt2hS8k7Nt2zZbtHCh6y3Sp0+fYOy+p55Kr7/+uuudpLbLIYccErxTundWrLBJjz3mXqtnzPHjx7vX5eIf//iHzZk9OxiqTz21dE9VJcGQHOUP0iB+kAbxgzSIn+wYMWKE9ezZ07Zu2eJ6z0f16NHDXXZXPbM7dOgQjEUSJHxKpMu76ZrYRx51lA0eNMh1Q1OjR2f/nXjSSe56gvoMGtd+nXpbv0697NmVM+3tze/Yy+vm24QBR7jumqV4dPnzrrCurqm2oV0H2m8nXG9d2rG+WjriB2kQP0iD+EEaxE95UUJn5KhRrsG5du3aer1mdOPZRYsWWZfOna1///7B2H1L96TR9Og+Nhs2bLDVq1bZ4AMOcAmsUiiZ9dhjj7lLpKnhfeppp1n79u2Dd/e9Jx5/3N54I3dd/bD99tvPTjjxRDuqtt3GGaGlo/xBGsQP0iB+kAbxky06WWrMoYe6+2eqJ8+Q2rqqev7oPj/jjj/eBgwcGHwSpSDh00C6DED32gaPev3ooddcGqBpje19sHWobGf/WPWKLdm80u5b8qz17NDVDus1IvhEfu9uW2s/fPkPdvPLf3SF9aAu/e13J3zbhnXbP/gEWjriB2kQP0iD+EEaxE/50T17dAKYevbofjZhSq60rax0DdZyoOST7i+0YsUK27hxo82fN886dujg2i/FbNmyxV0O7oXah5I93bp1c5ff0JmY5eLPd98dezm9Y4891l1iu5x6XGUR5Q/SIH6QBvGDNIif7NHJOeqd3q+27qr6my7Hi4arqK287303S6CM3fv2U3b9zNttZ/UuNzys60A7Y+gJNn6/sXZIj6G1hXg321W921ZuW2Nz1y2wZ1fOsgeWTHGflfH7fchuOe5aG9xlv2AMWhPiB2kQP0iD+EEaxE95Uu8Sf1+bMJ2R+OEPfzgY2vfefPNNmzJ5suuJJOqpo0tVDxo82DWu1cjWe0ryrF692pYuXeqSQ97g2s9NnDjRunXvHozZ9/779ttdIiqKe6k2PsofpEH8IA3iB2kQP2itSPggk5ZsftdunXu3Pbj0uWBMcb1qC/Krx1xgV4w6JxiD1or4QRrED9IgfpAG8VOe8iV9Jpxwgrvsc7lQD58ZM2bYgvnzgzHFKRGkxNURRx4ZjCkPv//d72z79u3BUJ2zzznHXXIbjY/yB2kQP0iD+EEaxA9aIxI+yLQ3Nyy2+xZPtskrZ9mCTcuCsXXaV7azcf0Os08cMN4uHP4xa9embfAOQPwgHeIHaRA/SIP4KT/qPfP6668HQ3VO+ehHbdSoUcFQedD9h+bNm+d68ayPXJJOdAm4/QcNcpetU08ZDZeTP/3xj64nUtTnL7nE3WcJTYvyB2kQP0iD+EEaxA9aExI+aDE27thiy7a8Z5t3brXKikrr27Gnjeg+OHgXKIz4QRrED9IgfpAG8VM+ZkyfbrNmzQqG6px66qk24qCDgqHyol4ymzZutO07drj7kXbq1Ml69eoVvFt+7vnzn239+vXBUJ2rr7kmeIXmRPmDNIgfpEH8IA3iBy0dCR8AAAAAaARTp061V195JRiqc8YZZ9iQoUODITTEX//6V1u9alUwVOfLV15p7dq1C4YAAACA1q1N8AwAAAAASGHChAnuMmhRDz/8sK2LuXwaknnowQdjkz2XXnYZyR4AAAAghIQPAAAAADSSiaecYgfFXMLtL/fcYzt27AiGkNTkZ5+15cuXB0N1Lv7c56xLly7BEAAAAAAh4QMAAAAAjegTp54aewm3v957b/AKScycOdPeeOONYKjO+RdcYD179gyGAAAAAHgkfAAAAACgkem+Pf379w+GcjZs2GBPPfVUMIRC3nrrLXtxxoxgqM4ZZ56513IFAAAAkEPCBwAAAACagHqidOzYMRjKmT9vXmwiA3VWrlxpzz7zTDBU55hjjrEhQ4YEQwAAAACiSPgAAAAAQBP5zGc/G7yqo0uVvfrqq8EQwjZv3uzu21NTUxOMyRk+fLgde9xxwRAAAACAOCR8AAAAAKCJdOnSxc4+55xgqM7Uv//dFixYEAzBmzJlirv0XdiAAQPstE9+MhgCAAAAkA8JHwAAAABoQoMGDbKTJ04Mhuo8N2WKvffee8EQnnvuOVu2dGkwlNOjZ0933x4AAAAAxZHwAQAAAIAmNmbMGDvyqKOCoZzt27e7pM+WLVuCMa3XS3Pm2Gtz5wZDOR06dLCJEyda+/btgzEAAAAACiHhAwAAAADNYPz48TZixIhgKGft2rXu8m6t2cKFC23atGnBUB31itp///2DIQAAAADFkPABAAAAgGYSl8R4++237fnnnw+GWpfVq1fb3597Lhiq808f+cheyTEAAAAAhZHwAQAAAIBm4i5Tdsop1rt372BMzisvv2wvzpgRDLUO26uqXLLngw8+CMbkjB071o444ohgCAAAAEBSJHwAAAAAoBn16NHD9fTp1KlTMCZn5syZLvHTWkyaNMlWrVoVDOUMO/BAm3DCCcEQAAAAgFKQ8AEAAACAZjZgwACX9InSpd2WL18eDLVcD9x/v73zzjvBUE6fPn3sxBNPDIYAAAAAlKqiplbwGgAAAADQjObMmWMvTJsWDNU56eST7dBDDw2GWo6qqiq7589/3usybh07drRzzz3XekUudQcAAAAgORI+AAAAALAPPfH447Zw4cJgqM5RRx1lx48fHwxl35LFi+3RRx8Nhuq76KKLSPYAAAAAKZHwAQAAAIB97OGHH7ZlS5cGQ3UOOuggd+m39u3bB2OyafasWTZ9+vRgqL5Pn3eeu8QdAAAAgHRI+AAAAABAGZg9e7ZNf+GFYKhOv/797aSTTrL+tc9Z9PzUqfbKK68EQ3WUxPrsRRdZ165dgzEAAAAA0iDhAwAAAABlYvny5fbQgw8GQ3U6dOhg48ePtzEZuq/PmjVr7OWXXrL58+cHY+rsN2CAnXfeecEQAAAAgMZAwgcAAAAAysj69ett0mOPuecoJUoOO+wwGzVqVDCm/Gi6X5s711577TWrrq4OxtYZPXq0TTzllGAIAAAAQGMh4QMAAAAAZWbHjh02ZfJkW7BgQTCmvkGDBtlhhx/u7vFTLjZt3OiSPHNrH7t27gzG1jf+n/7JjjzyyGAIAAAAQGMi4QMAAAAAZeofzz9vL7/8cjC0tyFDhrgePwcOHx6MaX5bt251iR716qmqqgrG1tejRw/7yIQJNmzYsGAMAAAAgMZGwgcAAAAAytjbixbZ3LlzbcWKFcGYvfXt29cGDR5sgwcNsmEHHhiMbTqbN2+25cuW2fLaadLz9u3bg3fqa9eunY0dO9YOP/xw69K1azAWAAAAQFMg4QMAAAAAGTDvrbdc4mfVqlXBmHidOnWy/fff3/WmGT5ihLVv3z54J521a9bY0mXLbOnSpfbuypXB2PyU5Dl87Fjr1atXMAYAAABAUyLhAwAAAAAZoqTP3FdftfXr1wdjCtP9fjp37mydah+dO3Vyz138sJ5rx+3atcu2bd1q2z74wLZt22Yf1D70Ws9bax9r1661rVu2BN9Y2MhRo1yyZ7/99gvGAAAAAGgOJHwAAAAAIGN27txpr776qkv+JE3ENDX1JlKiZ/DgwcEYAAAAAM2JhA8AAAAAZJTunbPynXds5bvvuufVq1cH7zQ99Qw64IAD3OXjBgwcaH369AneAQAAALAvkPABAAAAgBZi06ZN9s6KFbZ8+XJ755133OXZGpOSO0OGDHGXiVOSBwAAAED5IOEDAAAAAC2U7r2jJFCV7sejR1WVuy+Pe137qKodVlKoXbt21lH39+nY0d3Xx70OhnWvH70eMGCA+xwAAACA8kTCBwAAAAAAAAAAIOPaBM8AAAAAAAAAAADIKBI+AAAAAAAAAAAAGUfCBwAAAAAAAAAAIONI+AAAAAAAAAAAAGQcCR8AAAAAAAAAAICMI+EDAAAAAAAAAACQcSR8AAAAAAAAAAAAMo6EDwAAAAAAAAAAQMaR8AEAAAAAAAAAAMg4Ej4AAAAAAAAAAAAZR8IHAAAAAAAAAAAg40j4AAAAAAAAAAAAZBwJHwAAAAAAAAAAgIwj4QMAAAAAAAAAAJBxJHwAAAAAAAAAAAAyjoQPAAAAAAAAAABAxpHwAQAAAAAAAAAAyDgSPgAAAAAAAAAAABlHwgcAAAAAAAAAACDjSPgAAAAAAAAAAABkHAkfAAAAAAAAAACAjCPhAwAAAAAAAAAAkHEkfAAAAAAAAAAAADKOhA8AAAAAAAAAAEDGkfABAAAAAAAAAADIOBI+AAAAAAAAAAAAGUfCBwAAAAAAAAAAIONI+AAAAAAAAAAAAGQcCR8AAAAAAAAAAICMI+EDAAAAAAAAAACQcSR8AAAAAAAAAAAAMo6EDwAAAAAAAAAAQMaR8AEAAAAAAAAAAMiw6uoaEj4AAAAAAAAAAABZtmvXbhI+AAAAAAAAAAAAWbV7d7Xt2lVNwgcAAAAAAAAAACCLlOzZuXO31dTUWEXtfzXBeAAAAAAAAAAAAJQ53bNHl3FTzx6f5qnYsqWKhA8AAAAAAAAAAEBmmf1/LDlB8MCFgcEAAAAASUVORK5CYII=;" vertex="1" parent="1">
          <mxGeometry x="80" y="670" width="720" height="95.42" as="geometry" />
        </mxCell>
        <mxCell id="qepv15_--lQYeBApSAIm-53" value="" style="edgeStyle=none;rounded=0;orthogonalLoop=1;jettySize=auto;html=1;" edge="1" parent="1" source="qepv15_--lQYeBApSAIm-48" target="qepv15_--lQYeBApSAIm-52">
          <mxGeometry relative="1" as="geometry" />
        </mxCell>
        <mxCell id="qepv15_--lQYeBApSAIm-88" style="edgeStyle=none;rounded=0;orthogonalLoop=1;jettySize=auto;html=1;exitX=1;exitY=1;exitDx=0;exitDy=0;" edge="1" parent="1" source="qepv15_--lQYeBApSAIm-48" target="qepv15_--lQYeBApSAIm-57">
          <mxGeometry relative="1" as="geometry">
            <Array as="points">
              <mxPoint x="500" y="600" />
            </Array>
          </mxGeometry>
        </mxCell>
        <mxCell id="qepv15_--lQYeBApSAIm-48" value="&lt;font style=&quot;font-size: 12px;&quot; face=&quot;Comic Sans MS&quot;&gt;&lt;b&gt;Build&lt;/b&gt;&lt;/font&gt;" style="rounded=1;whiteSpace=wrap;html=1;verticalAlign=top;labelBackgroundColor=default;" vertex="1" parent="1">
          <mxGeometry x="330" y="545" width="75" height="30" as="geometry" />
        </mxCell>
        <mxCell id="qepv15_--lQYeBApSAIm-55" value="" style="edgeStyle=orthogonalEdgeStyle;rounded=0;orthogonalLoop=1;jettySize=auto;html=1;" edge="1" parent="1" source="qepv15_--lQYeBApSAIm-52" target="qepv15_--lQYeBApSAIm-57">
          <mxGeometry relative="1" as="geometry">
            <mxPoint x="590" y="550" as="targetPoint" />
            <Array as="points">
              <mxPoint x="580" y="560" />
            </Array>
          </mxGeometry>
        </mxCell>
        <mxCell id="qepv15_--lQYeBApSAIm-52" value="&lt;font style=&quot;font-size: 12px;&quot; face=&quot;Comic Sans MS&quot;&gt;&lt;b&gt;Automated Test&lt;/b&gt;&lt;/font&gt;" style="rounded=1;whiteSpace=wrap;html=1;verticalAlign=top;labelBackgroundColor=default;" vertex="1" parent="1">
          <mxGeometry x="462.5" y="540" width="75" height="40" as="geometry" />
        </mxCell>
        <mxCell id="qepv15_--lQYeBApSAIm-65" value="" style="edgeStyle=none;rounded=0;orthogonalLoop=1;jettySize=auto;html=1;" edge="1" parent="1" source="qepv15_--lQYeBApSAIm-57" target="qepv15_--lQYeBApSAIm-64">
          <mxGeometry relative="1" as="geometry">
            <Array as="points">
              <mxPoint x="770" y="560" />
            </Array>
          </mxGeometry>
        </mxCell>
        <mxCell id="qepv15_--lQYeBApSAIm-92" style="edgeStyle=none;rounded=0;orthogonalLoop=1;jettySize=auto;html=1;exitX=1;exitY=0.75;exitDx=0;exitDy=0;shadow=1;" edge="1" parent="1" source="qepv15_--lQYeBApSAIm-57">
          <mxGeometry relative="1" as="geometry">
            <mxPoint x="730" y="610" as="targetPoint" />
          </mxGeometry>
        </mxCell>
        <mxCell id="qepv15_--lQYeBApSAIm-57" value="" style="shape=image;verticalLabelPosition=bottom;labelBackgroundColor=default;verticalAlign=top;aspect=fixed;imageAspect=0;image=https://assets-global.website-files.com/6064b31ff49a2d31e0493af1/63a2fd04f7078f9ab787025f_dockerhub.svg;" vertex="1" parent="1">
          <mxGeometry x="620" y="530" width="60" height="60" as="geometry" />
        </mxCell>
        <mxCell id="qepv15_--lQYeBApSAIm-58" value="&lt;font style=&quot;font-size: 10px;&quot; face=&quot;Comic Sans MS&quot;&gt;&lt;b&gt;Build Docker Image&lt;/b&gt;&lt;/font&gt;" style="text;strokeColor=none;align=center;fillColor=none;html=1;verticalAlign=middle;whiteSpace=wrap;rounded=0;" vertex="1" parent="1">
          <mxGeometry x="540" y="530" width="90" height="30" as="geometry" />
        </mxCell>
        <mxCell id="qepv15_--lQYeBApSAIm-59" value="&lt;font style=&quot;font-size: 10px;&quot; face=&quot;Comic Sans MS&quot;&gt;&lt;b&gt;Push to DockerHub&lt;/b&gt;&lt;/font&gt;" style="text;strokeColor=none;align=center;fillColor=none;html=1;verticalAlign=middle;whiteSpace=wrap;rounded=0;" vertex="1" parent="1">
          <mxGeometry x="610" y="580" width="60" height="30" as="geometry" />
        </mxCell>
        <mxCell id="qepv15_--lQYeBApSAIm-64" value="&lt;font face=&quot;Comic Sans MS&quot; style=&quot;font-size: 10px;&quot;&gt;&lt;b&gt;Deploy to Render&lt;/b&gt;&lt;/font&gt;&lt;div&gt;&lt;font face=&quot;Comic Sans MS&quot;&gt;&lt;span style=&quot;font-size: 10px;&quot;&gt;&lt;b&gt;Production&lt;/b&gt;&lt;/span&gt;&lt;/font&gt;&lt;/div&gt;" style="rounded=1;whiteSpace=wrap;html=1;verticalAlign=top;labelBackgroundColor=default;" vertex="1" parent="1">
          <mxGeometry x="720" y="410" width="100" height="40" as="geometry" />
        </mxCell>
        <mxCell id="qepv15_--lQYeBApSAIm-89" value="&lt;font style=&quot;font-size: 10px;&quot; face=&quot;Comic Sans MS&quot;&gt;&lt;b&gt;If No Tests Specified, Directly create Docker Image&lt;/b&gt;&lt;/font&gt;" style="text;strokeColor=none;align=center;fillColor=none;html=1;verticalAlign=middle;whiteSpace=wrap;rounded=0;" vertex="1" parent="1">
          <mxGeometry x="440" y="605" width="120" height="40" as="geometry" />
        </mxCell>
        <mxCell id="qepv15_--lQYeBApSAIm-90" value="&lt;font face=&quot;Comic Sans MS&quot;&gt;&lt;span style=&quot;font-size: 10px;&quot;&gt;&lt;b&gt;Exact Pipeline Structure&lt;/b&gt;&lt;/span&gt;&lt;/font&gt;" style="text;strokeColor=none;align=center;fillColor=none;html=1;verticalAlign=middle;whiteSpace=wrap;rounded=0;" vertex="1" parent="1">
          <mxGeometry x="75" y="640" width="125" height="30" as="geometry" />
        </mxCell>
        <mxCell id="qepv15_--lQYeBApSAIm-94" value="&lt;font style=&quot;font-size: 10px;&quot; face=&quot;Comic Sans MS&quot;&gt;&lt;b&gt;We can also deploy our image in AWS ECS&lt;/b&gt;&lt;/font&gt;" style="text;strokeColor=none;align=center;fillColor=none;html=1;verticalAlign=middle;whiteSpace=wrap;rounded=0;" vertex="1" parent="1">
          <mxGeometry x="720" y="620" width="115" height="30" as="geometry" />
        </mxCell>
        <mxCell id="qepv15_--lQYeBApSAIm-95" value="&lt;font face=&quot;Comic Sans MS&quot;&gt;&lt;span style=&quot;font-size: 10px;&quot;&gt;&lt;b&gt;Shell Script&lt;/b&gt;&lt;/span&gt;&lt;/font&gt;&lt;div&gt;&lt;font style=&quot;font-size: 12px;&quot; face=&quot;Comic Sans MS&quot;&gt;&lt;b style=&quot;&quot;&gt;Deployment.sh&lt;/b&gt;&lt;/font&gt;&lt;/div&gt;" style="whiteSpace=wrap;html=1;" vertex="1" parent="1">
          <mxGeometry x="720" y="540" width="100" height="40" as="geometry" />
        </mxCell>
      </root>
    </mxGraphModel>
  </diagram>
</mxfile>
